<!-- Generator: Adobe Illustrator 18.0.0, SVG Export Plug-In  -->
<svg version="1.1"
   xmlns="http://www.w3.org/2000/svg" xmlns:xlink="http://www.w3.org/1999/xlink" xmlns:a="http://ns.adobe.com/AdobeSVGViewerExtensions/3.0/"
   x="0px" y="0px" width="24px" height="24px" viewBox="0 0 24 24" overflow="scroll" enable-background="new 0 0 24 24"
   xml:space="preserve">
<defs>
</defs>
<g>
  <rect x="7.1" y="-2.4" transform="matrix(0.7071 0.7071 -0.7071 0.7071 8.1317 -3.3683)" fill="" width="2" height="21"/>
  <rect x="11.5" y="1.5" transform="matrix(0.7071 0.7071 -0.7071 0.7071 12.0208 -4.9792)" fill="" width="1" height="21"/>
  <rect x="14.9" y="5.4" transform="matrix(0.7071 0.7071 -0.7071 0.7071 15.91 -6.5901)" fill="" width="2" height="21"/>
  <rect x="7.1" y="5.4" transform="matrix(0.7071 -0.7071 0.7071 0.7071 -8.8683 10.4099)" fill="" width="2" height="21"/>
  <rect x="11.5" y="1.5" transform="matrix(0.7071 -0.7071 0.7071 0.7071 -4.9792 12.0208)" fill="" width="1" height="21"/>
  <rect x="14.9" y="-2.4" transform="matrix(0.7071 -0.7071 0.7071 0.7071 -1.09 13.6317)" fill="" width="2" height="21"/>
</g>
</svg>
