<!-- Generator: Adobe Illustrator 18.0.0, SVG Export Plug-In  -->
<svg version="1.1"
   xmlns="http://www.w3.org/2000/svg" xmlns:xlink="http://www.w3.org/1999/xlink" xmlns:a="http://ns.adobe.com/AdobeSVGViewerExtensions/3.0/"
   x="0px" y="0px" width="22px" height="16px" viewBox="0 0 22 16" overflow="scroll" enable-background="new 0 0 22 16"
   xml:space="preserve">
<defs>
</defs>
<path fill="" d="M18,4l-4,4h3c0,3.3-2.7,6-6,6c-1,0-2-0.3-2.8-0.7l-1.5,1.5C8,15.5,9.4,16,11,16c4.4,0,8-3.6,8-8h3L18,4z
   M5,8c0-3.3,2.7-6,6-6c1,0,2,0.3,2.8,0.7l1.5-1.5C14,0.5,12.6,0,11,0C6.6,0,3,3.6,3,8H0l4,4l4-4H5z"/>
</svg>
