<?xml version="1.0" encoding="utf-8"?>
<!-- Generator: Adobe Illustrator 18.0.0, SVG Export Plug-In . SVG Version: 6.00 Build 0)  -->
<!DOCTYPE svg PUBLIC "-//W3C//DTD SVG 1.1//EN" "http://www.w3.org/Graphics/SVG/1.1/DTD/svg11.dtd">
<svg version="1.1" id="Layer_1" xmlns="http://www.w3.org/2000/svg" xmlns:xlink="http://www.w3.org/1999/xlink" x="0px" y="0px"
	 viewBox="0 0 36 36" enable-background="new 0 0 36 36" xml:space="preserve">
<g>
	<path d="M17.6,25.1h1.5c0,0,0.4,0,0.6-0.4c0.4-0.4,0.4-0.6,0.4-0.6s0-1.9,1-2.4s1.9,1.9,3.3,2.8
		c1,0.6,1.7,0.4,1.7,0.4h3.3c0,0,1.8-0.1,1-1.5c-0.1-0.1-0.4-1.1-2.5-2.9c-2.1-1.8-1.8-1.7,0.8-5c1.5-1.9,2.1-3.3,1.9-3.9
		c-0.3-0.3-1.5-0.1-1.5-0.1h-3.9c0,0-0.4,0-0.4,0.1c-0.4,0.1-0.4,0.4-0.4,0.4S23.8,13.6,23,15c-1.7,2.8-2.2,3-2.6,2.8
		c-0.6-0.4-0.4-1.7-0.4-2.5c0-2.8,0.4-3.9-0.8-4.2c-0.4,0-1,0-1.9,0c-1.4,0-2.5,0-3,0.4c-0.3,0.3-0.7,0.7-0.4,0.7
		c0.4,0,0.8,0.1,1.1,0.4c0.4,0.4,0.4,1.7,0.4,1.7s0.4,3.2-0.4,3.6c-0.4,0.4-1.1-0.4-2.6-2.9c-0.8-1.2-1.4-2.6-1.4-2.6
		s-0.3-0.1-0.3-0.3c-0.3-0.1-0.7-0.3-0.7-0.3H6.4c0,0-0.4,0-0.8,0.3c0,0.3,0,0.6,0,0.6s2.8,6.5,6,9.6C14.4,25.2,17.6,25.1,17.6,25.1
		L17.6,25.1z"/>
</g>
</svg>
