<?xml version="1.0" encoding="utf-8"?>
<!-- Generator: Adobe Illustrator 18.0.0, SVG Export Plug-In . SVG Version: 6.00 Build 0)  -->
<!DOCTYPE svg PUBLIC "-//W3C//DTD SVG 1.1//EN" "http://www.w3.org/Graphics/SVG/1.1/DTD/svg11.dtd">
<svg version="1.1" id="Layer_1" xmlns="http://www.w3.org/2000/svg" xmlns:xlink="http://www.w3.org/1999/xlink" x="0px" y="0px"
	 viewBox="0 0 36 36" enable-background="new 0 0 36 36" xml:space="preserve">
<g>
	<g>
		<path d="M5.5,17.9c-0.1,3.3,2.2,6.6,5.5,7.6c3,1,6.8,0.3,8.7-2.4c1.5-1.8,1.8-4.3,1.7-6.5c-2.6,0-5.1,0-7.8,0
			c0,1,0,1.8,0,2.8c1.5,0,3,0,4.7,0c-0.4,1.4-1.2,2.6-2.6,3c-2.8,1.2-6.1-0.3-6.9-3c-1-2.6,0.7-5.8,3.3-6.5c1.7-0.6,3.3,0.1,4.8,1
			c0.7-0.7,1.4-1.4,2.1-2.1c-1.7-1.4-3.7-2.2-5.8-1.9C9,9.8,5.4,13.6,5.5,17.9z"/>
		<path d="M26.4,14.4c0,0.8,0,1.5,0,2.4c-0.8,0-1.5,0-2.4,0c0,0.8,0,1.5,0,2.4c0.8,0,1.5,0,2.4,0c0,0.8,0,1.5,0,2.4
			c0.8,0,1.5,0,2.4,0c0-0.8,0-1.5,0-2.4c0.8,0,1.5,0,2.4,0c0-0.8,0-1.5,0-2.4c-0.8,0-1.5,0-2.4,0c0-0.8,0-1.5,0-2.4
			C28,14.4,27.3,14.4,26.4,14.4z"/>
		<g>
			<path d="M5.5,17.9c-0.1-4.3,3.5-8,7.8-8.2c2.1-0.1,4.2,0.7,5.8,1.9c-0.7,0.7-1.4,1.4-2.1,2.1
				c-1.4-0.8-3.2-1.5-4.8-1c-2.6,1-4.3,4.2-3.3,6.6c0.8,2.8,4.2,4.3,6.8,3c1.4-0.4,2.2-1.8,2.6-3c-1.5,0-3,0-4.7,0c0-1,0-1.8,0-2.8
				c2.6,0,5.1,0,7.8,0c0.1,2.2-0.1,4.7-1.7,6.5c-2.1,2.6-5.7,3.3-8.7,2.4C7.8,24.4,5.5,21.2,5.5,17.9z"/>
			<path d="M26.4,14.4c0.8,0,1.5,0,2.4,0c0,0.8,0,1.5,0,2.4c0.8,0,1.5,0,2.4,0c0,0.8,0,1.5,0,2.4c-0.8,0-1.5,0-2.4,0
				c0,0.8,0,1.5,0,2.4c-0.8,0-1.5,0-2.4,0c0-0.8,0-1.5,0-2.4c-0.8,0-1.5,0-2.4,0c0-0.8,0-1.5,0-2.4c0.8,0,1.5,0,2.4,0
				C26.4,15.9,26.4,15.1,26.4,14.4z"/>
		</g>
	</g>
</g>
</svg>
