<?xml version="1.0" encoding="utf-8"?>
<!-- Generator: Adobe Illustrator 18.0.0, SVG Export Plug-In . SVG Version: 6.00 Build 0)  -->
<!DOCTYPE svg PUBLIC "-//W3C//DTD SVG 1.1//EN" "http://www.w3.org/Graphics/SVG/1.1/DTD/svg11.dtd" [
	<!ENTITY ns_extend "http://ns.adobe.com/Extensibility/1.0/">
	<!ENTITY ns_ai "http://ns.adobe.com/AdobeIllustrator/10.0/">
	<!ENTITY ns_graphs "http://ns.adobe.com/Graphs/1.0/">
	<!ENTITY ns_vars "http://ns.adobe.com/Variables/1.0/">
	<!ENTITY ns_imrep "http://ns.adobe.com/ImageReplacement/1.0/">
	<!ENTITY ns_sfw "http://ns.adobe.com/SaveForWeb/1.0/">
	<!ENTITY ns_custom "http://ns.adobe.com/GenericCustomNamespace/1.0/">
	<!ENTITY ns_adobe_xpath "http://ns.adobe.com/XPath/1.0/">
]>
<svg version="1.1" id="Layer_1" xmlns:x="&ns_extend;" xmlns:i="&ns_ai;" xmlns:graph="&ns_graphs;"
	 xmlns="http://www.w3.org/2000/svg" xmlns:xlink="http://www.w3.org/1999/xlink" x="0px" y="0px" viewBox="0 0 52 60"
	 enable-background="new 0 0 52 60" xml:space="preserve">
<metadata>
	<sfw  xmlns="&ns_sfw;">
		<slices></slices>
		<sliceSourceBounds  height="60" width="52" x="0" y="-60" bottomLeftOrigin="true"></sliceSourceBounds>
		<optimizationSettings>
			<targetSettings  fileFormat="PNG24Format" targetSettingsID="0">
				<PNG24Format  transparency="true" matteColor="#FFFFFF" noMatteColor="false" interlaced="false" filtered="false">
					</PNG24Format>
			</targetSettings>
		</optimizationSettings>
	</sfw>
</metadata>
<g>
	<path fill="#7BC043" d="M52,0c0,20.1,0,40,0,60c-17,0-33,0-50,0c0-2.8,0-6,0-9c3,0,5,0,7,0c0-2,0-5,0-8c-2,0-4,0-7,0c0-3,0-6,0-9
		c3,0,5,0,7,0c0-2,0-6,0-8c-2,0-4,0-7,0c0-3,0-6,0-9c3,0,5,0,7,0c0-3,0-5,0-8C7,9,5,9,2,9c0-3,0-6.1,0-9C19,0,35,0,52,0z M17,9
		c0,2,0,5,0,8c9,0,18,0,26,0c0-3,0-6,0-8C35,9,26,9,17,9z"/>
	<path fill="#7BC043" d="M7,11c0,1,0,2.5,0,4c-2,0-5,0-7,0c0-1.5,0-3,0-4C2,11,5,11,7,11z"/>
	<path fill="#7BC043" d="M7,32c-2,0-5,0-7,0c0-1,0-3,0-4c2,0,5,0,7,0C7,29,7,31,7,32z"/>
	<path fill="#7BC043" d="M7,49c-2,0-5,0-7,0c0-1,0-2.5,0-4c2,0,5,0,7,0C7,46.5,7,48,7,49z"/>
	<path fill="#7BC043" d="M41,11c0,1,0,2.5,0,4c-7,0-14,0-22,0c0-1.5,0-3,0-4C27,11,34,11,41,11z"/>
</g>
</svg>
